<svg width="75" height="75" viewBox="0 0 75 75" fill="none" xmlns="http://www.w3.org/2000/svg">
<path d="M55.0408 40.1496L74.6188 59.7276L64.7095 69.6368C62.9824 71.3568 60.9309 72.7164 58.6741 73.637C56.4172 74.5575 54 75.0206 51.5627 74.9993C28.9129 74.9993 0.000609687 46.0871 0.000609687 23.4373C-0.019213 20.9997 0.444518 18.5825 1.36497 16.3253C2.28543 14.0682 3.64433 12.016 5.36307 10.2874L15.2724 0.381246L34.8503 19.9592L21.9598 32.8497C25.792 41.9567 33.0271 49.2086 42.1253 53.062L55.0408 40.1496ZM68.7501 31.2497H75C74.9909 22.9646 71.6956 15.0214 65.8371 9.16288C59.9786 3.30439 52.0354 0.00909865 43.7503 0V6.24994C50.3783 6.25739 56.7328 8.89367 61.4196 13.5804C66.1063 18.2672 68.7426 24.6216 68.7501 31.2497ZM56.2502 31.2497H62.5001C62.4951 26.2785 60.5181 21.5123 57.0029 17.9971C53.4877 14.4819 48.7215 12.5048 43.7503 12.4999V18.7498C47.0654 18.7498 50.2448 20.0668 52.589 22.411C54.9332 24.7551 56.2502 27.9345 56.2502 31.2497Z" fill="#ED3237"/>
</svg>
