<svg width="75" height="75" viewBox="0 0 75 75" fill="none" xmlns="http://www.w3.org/2000/svg">
<path d="M37.5 6.75625C47.5125 6.75625 48.7 6.79375 52.6531 6.975C56.7406 7.1625 60.95 8.09375 63.9281 11.0719C66.9344 14.0781 67.8375 18.2469 68.025 22.3469C68.2062 26.3 68.2438 27.4875 68.2438 37.5C68.2438 47.5125 68.2062 48.7 68.025 52.6531C67.8406 56.7188 66.8875 60.9688 63.9281 63.9281C60.9219 66.9344 56.7563 67.8375 52.6531 68.025C48.7 68.2062 47.5125 68.2438 37.5 68.2438C27.4875 68.2438 26.3 68.2062 22.3469 68.025C18.3125 67.8406 14.0063 66.8656 11.0719 63.9281C8.08125 60.9375 7.1625 56.7281 6.975 52.6531C6.79375 48.7 6.75625 47.5125 6.75625 37.5C6.75625 27.4875 6.79375 26.3 6.975 22.3469C7.15938 18.2969 8.12187 14.0219 11.0719 11.0719C14.0719 8.07187 18.2563 7.1625 22.3469 6.975C26.3 6.79375 27.4875 6.75625 37.5 6.75625ZM37.5 0C27.3156 0 26.0375 0.04375 22.0375 0.225C16.2406 0.490625 10.4844 2.10312 6.29375 6.29375C2.0875 10.5 0.490625 16.2437 0.225 22.0375C0.04375 26.0375 0 27.3156 0 37.5C0 47.6844 0.04375 48.9625 0.225 52.9625C0.490625 58.7531 2.10937 64.525 6.29375 68.7063C10.4969 72.9094 16.25 74.5094 22.0375 74.775C26.0375 74.9562 27.3156 75 37.5 75C47.6844 75 48.9625 74.9562 52.9625 74.775C58.7562 74.5094 64.5188 72.8938 68.7063 68.7063C72.9156 64.4969 74.5094 58.7562 74.775 52.9625C74.9562 48.9625 75 47.6844 75 37.5C75 27.3156 74.9562 26.0375 74.775 22.0375C74.5094 16.2406 72.8938 10.4812 68.7063 6.29375C64.5094 2.09687 58.7406 0.4875 52.9625 0.225C48.9625 0.04375 47.6844 0 37.5 0Z" fill="#ED3237"/>
<path d="M37.5 18.2437C26.8657 18.2437 18.2438 26.8655 18.2438 37.4999C18.2438 48.1343 26.8657 56.7562 37.5 56.7562C48.1344 56.7562 56.7563 48.1343 56.7563 37.4999C56.7563 26.8655 48.1344 18.2437 37.5 18.2437ZM37.5 49.9999C30.5969 49.9999 25 44.403 25 37.4999C25 30.5968 30.5969 24.9999 37.5 24.9999C44.4032 24.9999 50 30.5968 50 37.4999C50 44.403 44.4032 49.9999 37.5 49.9999Z" fill="#ED3237"/>
<path d="M57.5187 21.9814C60.004 21.9814 62.0187 19.9667 62.0187 17.4814C62.0187 14.9962 60.004 12.9814 57.5187 12.9814C55.0335 12.9814 53.0187 14.9962 53.0187 17.4814C53.0187 19.9667 55.0335 21.9814 57.5187 21.9814Z" fill="#ED3237"/>
</svg>
