<svg width="685" height="290" viewBox="0 0 685 290" fill="none" xmlns="http://www.w3.org/2000/svg">
<path fill-rule="evenodd" clip-rule="evenodd" d="M4.98703 36.5975C113.306 82.9311 195.735 107.171 257.176 113.504C262.752 114.077 267.645 114.532 273.27 113.957C291.677 112.076 305.475 91.9903 304.546 79.3867C304.137 73.8198 300.355 73.7639 295.112 73.1754C285.419 72.0876 274.121 74.8482 262.49 79.5976C287.97 63.9972 314.018 48.4811 345.672 33.7957C378.711 18.4671 411.285 5.98713 447.821 2.19476C478.204 -0.958882 499.884 2.00162 528.289 12.6168C552.227 21.5618 570.377 32.8225 588.49 44.0976C598.281 50.9129 606.963 58.0611 614.989 65.4058C632.649 81.566 650.636 99.0224 661.016 120.892C667.256 134.038 667.717 143.011 663.491 148.598C656.703 150.019 649.916 151.439 643.129 152.86C641.39 153.224 641.8 155.237 643.201 155.625C647.421 156.794 651.023 158.445 654.188 160.435C664.521 166.929 670.505 176.118 675.391 186.963C680.422 198.129 683.92 206.022 684.111 218.385C684.337 232.933 677.444 245.652 669.456 257.523C645.242 293.511 638.13 289.035 598.649 289.098C564.363 289.152 530.251 289.307 496.149 289.467C475.303 289.565 459.273 288.402 439.887 286.239C411.495 283.07 459.035 270.399 409.644 269.805C380.314 269.452 350.982 269.098 321.651 268.745C302.436 268.514 314.387 275.909 284.911 274.808C275.555 274.459 266.197 274.109 256.84 273.759C249.126 273.471 256.899 265.561 260.571 258.718C263.849 252.608 265.085 253.13 258.463 252.933C212.555 251.572 166.623 250.629 120.719 249C90.5242 247.928 66.8069 243.656 35.2142 239.961C22.4696 238.471 30.8307 231.18 38.906 220.145C53.2822 200.501 65.4194 178.789 72.5846 161.599C56.1599 155.378 36.0623 155.208 17.467 154.365C-3.39596 153.422 -4.88812 148.444 15.5909 147.21C50.4891 145.106 85.1043 141.006 120.395 141.641C124.846 141.721 156.923 140.522 134.627 131.916C76.0391 109.294 37.243 74.8924 4.98703 36.5975Z" fill="#201E1E" fill-opacity="0.45" stroke="#373435" stroke-opacity="0.45" stroke-width="0.755906" stroke-miterlimit="22.9256"/>
<path fill-rule="evenodd" clip-rule="evenodd" d="M476.649 11.1061C533.3 32.0329 575.683 72.3227 613.649 118.606C601.649 118.773 589.649 118.939 577.649 119.106C555.186 118.813 542.768 127.058 533.649 138.106C523.957 152.135 425.363 281.578 442.339 282.049C449.568 282.251 456.798 282.452 464.027 282.653C476.748 283.006 473.645 282.833 481.051 271.814C498.251 246.224 515.45 220.633 532.649 195.043C543.188 179.36 545.96 181.222 566.024 180.305C585.586 179.411 616.179 183.053 629.627 199.416C638.223 209.876 639.235 223.383 636.226 236.166C633.163 249.178 624.52 259.323 615.413 268.684C612.899 271.268 602.538 278.013 608.758 281.698C615.569 285.735 625.186 279.562 630.971 276.004C644.381 267.754 651.936 258.877 658.035 249.843C664.562 240.178 669.837 232.161 670.527 220.038C671.584 201.474 663.891 177.234 648.477 165.814C636 156.571 619.033 154.773 603.9 154.361C590.729 154.002 582.016 154.688 571.534 156.729C557.077 159.543 557.432 160.536 570.792 153.182C584.692 145.528 584.773 147.072 600.653 146.572C609.903 146.281 619.153 145.989 628.403 145.697C639.309 145.355 637.197 146.821 637.333 135.546C637.458 125.201 638.03 126.091 633.516 116.795C631.998 113.67 630.48 110.544 628.962 107.419C632.383 111.062 635.805 114.704 639.227 118.346C644.94 124.427 638.034 149.875 651.337 142.867C662.714 136.871 655.91 122.979 649.462 115.919C561.713 31.7574 511.709 9.23067 476.649 11.1061Z" fill="#FEFEFE" fill-opacity="0.45"/>
<path fill-rule="evenodd" clip-rule="evenodd" d="M28.6454 52.4875C46.032 65.9192 63.9613 79.0795 84.8953 90.7371C132.153 117.052 191.073 132.071 243.878 141.339C261.678 144.462 279.626 147.096 297.646 149.488C304.611 135.562 312.973 122.088 324.559 109.657C349.431 82.9732 363.272 77.7764 397.883 75.0755C423.971 73.0398 450.059 73.6642 476.146 77.4876C498.646 82.6542 521.146 87.8208 543.646 92.9874C511.626 80.7074 483.977 67.01 447.129 56.2969C421.255 48.7741 402.82 44.617 375.673 48.663C358.455 51.2286 342.543 57.1273 329.896 67.8627C343.371 65.7518 357.36 63.7025 369.779 62.8627C379.542 62.2032 379.779 62.0354 370.223 64.2816C354.691 67.933 339.592 72.4521 326.295 80.5717C308.773 91.2704 306.389 98.6586 296.981 115.646C290.158 127.964 293.437 128.379 280.173 126.982C188.6 117.336 102.594 96.7545 28.6454 52.4875Z" fill="#FEFEFE" fill-opacity="0.45"/>
<path fill-rule="evenodd" clip-rule="evenodd" d="M42.3975 150.49L126.398 150.99L82.8978 233.99H44.8977L89.8975 157.49L42.3975 150.49Z" fill="#ED3237" fill-opacity="0.45"/>
<path fill-rule="evenodd" clip-rule="evenodd" d="M138.898 152.49C160.064 151.823 181.231 151.156 202.398 150.49C207.731 154.823 213.065 159.157 218.398 163.49C207.065 183.657 195.731 203.823 184.398 223.99C179.064 226.99 173.731 229.99 168.398 232.99C144.065 232.99 119.731 232.99 95.3978 232.99C109.898 206.156 124.398 179.323 138.898 152.49Z" fill="#ED3237" fill-opacity="0.45"/>
<path fill-rule="evenodd" clip-rule="evenodd" d="M229.398 151.49L311.898 150.99L301.898 169.49L255.398 169.99L249.898 180.99L280.398 182.99L270.898 201.99L239.398 202.49L233.898 215.49L275.398 214.99L268.898 232.99L185.898 233.49L229.398 151.49Z" fill="#ED3237" fill-opacity="0.45"/>
<path fill-rule="evenodd" clip-rule="evenodd" d="M324.898 151.49L407.898 150.99L353.898 245.99L320.398 242.99L340.898 207.99L330.898 206.99L316.898 232.99L278.898 232.49L324.898 151.49Z" fill="#ED3237" fill-opacity="0.45"/>
<path fill-rule="evenodd" clip-rule="evenodd" d="M418.898 151.49L457.898 150.99L423.398 214.99L467.898 215.99L460.398 227.99L560.398 231.49L581.398 233.99L375.898 233.49L418.898 151.49Z" fill="#ED3237" fill-opacity="0.45"/>
<path fill-rule="evenodd" clip-rule="evenodd" d="M165.397 170.74L175.397 171.49L151.897 215.99H142.647L165.397 170.74Z" fill="#111111"/>
<path fill-rule="evenodd" clip-rule="evenodd" d="M343.987 185.27L350.648 186.24L359.147 171.99L347.647 170.99L343.987 185.27Z" fill="#111111"/>
<path fill-rule="evenodd" clip-rule="evenodd" d="M281.298 242.184L295.798 243.184L296.298 250.934L303.548 242.934L319.768 242.906L319.57 243.331L319.572 243.331C319.466 243.574 319.388 243.787 319.336 243.971L301.421 270.875L286.921 270.813L293.796 259L286.796 265.75L282.609 265.563L284.046 258.438L279.671 267.563L263.859 267.125L281.298 242.184ZM321.928 242.902L344.9 242.863L333.922 262.313L308.484 261.75L321.484 243.625L321.417 243.629C321.636 243.343 321.82 243.075 321.928 242.902ZM349.286 242.855L396.955 242.774L395.665 244.924L395.715 244.938L385.36 261.873L359.234 261.812L369.109 249.437L362.109 249.312L353.426 261.648L341.109 261.375L350.172 250.063L345.047 249.563L347.846 245.138L347.896 245.152L349.286 242.855ZM400.338 242.768L421.61 242.731L421.726 244.079L421.765 244.06L421.61 247.623L414.173 253.311L415.548 254.873L410.36 264.498L399.547 264.56L401.985 255.436L401.235 255.373L397.86 261.936L386.235 261.998L398.44 245.182L398.533 245.213L400.338 242.768ZM427.015 242.722L449.049 242.684L448.049 249.934L431.799 248.684L430.049 251.434L443.549 250.934L435.798 263.684L414.799 263.934L414.048 257.184L429.049 257.434L429.002 256.106L417.298 255.623L425.035 245.272L425.085 245.289L427.015 242.722Z" fill="#FEFEFE" fill-opacity="0.45"/>
<path fill-rule="evenodd" clip-rule="evenodd" d="M321.728 256.814L325.478 257.064L331.853 249.439L328.853 248.689L321.728 256.814Z" fill="#111111"/>
<path fill-rule="evenodd" clip-rule="evenodd" d="M373.444 256.939L377.193 257.189L383.569 249.564L380.569 248.814L373.444 256.939Z" fill="#111111"/>
<path fill-rule="evenodd" clip-rule="evenodd" d="M405.976 251.595L408.632 251.72L408.882 248.72H406.038L405.976 251.595Z" fill="#111111"/>
<path fill-rule="evenodd" clip-rule="evenodd" d="M368.413 241.565L374.038 241.627L371.288 247.627L368.413 241.565Z" fill="#111111"/>
</svg>
