<?xml version="1.0" encoding="UTF-8"?>
<!DOCTYPE svg PUBLIC "-//W3C//DTD SVG 1.1//EN" "http://www.w3.org/Graphics/SVG/1.1/DTD/svg11.dtd">
<!-- Creator: CorelDRAW 2019 (64 Bit) -->
<svg xmlns="http://www.w3.org/2000/svg" xml:space="preserve" width="210mm" height="297mm" version="1.1" style="shape-rendering:geometricPrecision; text-rendering:geometricPrecision; image-rendering:optimizeQuality; fill-rule:evenodd; clip-rule:evenodd"
viewBox="0 0 21000 29700"
 xmlns:xlink="http://www.w3.org/1999/xlink">
 <defs>
  <style type="text/css">
   <![CDATA[
    .str0 {stroke:#373435;stroke-width:20;stroke-miterlimit:22.9256}
    .fil1 {fill:#FEFEFE}
    .fil4 {fill:#FEFEFE}
    .fil2 {fill:#ED3237}
    .fil0 {fill:#201E1E}
    .fil3 {fill:#201E1E}
   ]]>
  </style>
 </defs>
 <g id="Camada_x0020_1">
  <metadata id="CorelCorpID_0Corel-Layer"/>
  <path class="fil0 str0" d="M1067.23 12672.56c2865.94,1225.91 5046.86,1867.26 6672.51,2034.81 147.53,15.18 276.97,27.21 425.81,12 487.02,-49.77 852.08,-581.21 827.51,-914.68 -10.83,-147.29 -110.89,-148.77 -249.61,-164.34 -256.45,-28.78 -555.38,44.26 -863.12,169.92 674.16,-412.76 1363.35,-823.29 2200.85,-1211.84 874.17,-405.57 1736.03,-735.77 2702.69,-836.11 803.9,-83.44 1377.51,-5.11 2129.07,275.75 633.34,236.67 1113.56,534.61 1592.82,832.93 259.03,180.32 488.76,369.45 701.11,563.78 467.24,427.57 943.15,889.44 1217.79,1468.07 165.1,347.82 177.31,585.24 65.48,733.05 -179.58,37.59 -359.17,75.18 -538.75,112.76 -46.01,9.63 -35.16,62.91 1.92,73.17 111.66,30.94 206.95,74.62 290.7,127.26 273.38,171.82 431.73,414.94 561,701.88 133.1,295.44 225.66,504.28 230.72,831.39 5.96,384.91 -176.42,721.42 -387.76,1035.52 -640.67,952.18 -828.82,833.75 -1873.43,835.41 -907.14,1.45 -1809.71,5.55 -2711.99,9.77 -551.54,2.59 -975.68,-28.16 -1488.58,-85.4 -751.21,-83.85 506.61,-419.11 -800.18,-434.81 -776.04,-9.35 -1552.11,-18.71 -2328.16,-28.05 -508.39,-6.12 -192.19,189.53 -972.07,160.42 -247.56,-9.25 -495.14,-18.51 -742.71,-27.76 -204.11,-7.62 1.56,-216.92 98.7,-397.97 86.74,-161.66 119.43,-147.85 -55.77,-153.06 -1214.65,-35.99 -2429.92,-60.94 -3644.47,-104.06 -798.91,-28.36 -1426.43,-141.39 -2262.32,-239.14 -337.2,-39.44 -115.98,-232.35 97.68,-524.3 380.37,-519.75 701.5,-1094.23 891.08,-1549.03 -434.57,-164.61 -966.32,-169.11 -1458.32,-191.4 -552,-24.96 -591.48,-156.66 -49.64,-189.32 923.35,-55.66 1839.21,-164.14 2772.95,-147.34 117.75,2.11 966.45,-29.6 376.56,-257.32 -1550.15,-598.52 -2576.63,-1508.74 -3430.07,-2521.96z"/>
  <path class="fil1" d="M13546.62 11998.1c1498.9,553.69 2620.27,1619.69 3624.8,2844.27 -317.5,4.41 -635,8.82 -952.5,13.23 -594.34,-7.75 -922.9,210.4 -1164.17,502.71 -256.44,371.17 -2865.08,3796.02 -2415.92,3808.5 191.28,5.32 382.57,10.64 573.84,15.97 336.56,9.34 254.48,4.77 450.42,-286.79 455.07,-677.07 910.13,-1354.15 1365.2,-2031.22 278.85,-414.94 352.17,-365.68 883.04,-389.94 517.59,-23.65 1327.02,72.69 1682.84,505.63 227.43,276.77 254.21,634.14 174.59,972.36 -81.03,344.26 -309.72,612.68 -550.68,860.36 -66.52,68.36 -340.64,246.83 -176.08,344.33 180.21,106.81 434.67,-56.5 587.71,-150.64 354.82,-218.28 554.71,-453.17 716.09,-692.19 172.68,-255.72 312.24,-467.84 330.51,-788.59 27.97,-491.17 -175.57,-1132.51 -583.41,-1434.67 -330.13,-244.56 -779.05,-292.14 -1179.44,-303.03 -348.48,-9.5 -579.01,8.65 -856.34,62.65 -382.51,74.46 -373.13,100.73 -19.64,-93.86 367.77,-202.49 369.93,-161.64 790.08,-174.87 244.73,-7.72 489.49,-15.44 734.22,-23.15 288.56,-9.06 232.66,29.73 236.26,-268.6 3.33,-273.69 18.46,-250.14 -100.99,-496.12 -40.16,-82.67 -80.32,-165.37 -120.48,-248.05 90.52,96.37 181.06,192.74 271.58,289.1 151.16,160.89 -31.54,834.2 320.43,648.79 301.01,-158.64 120.98,-526.2 -49.61,-713 -2321.7,-2226.78 -3644.71,-2822.8 -4572.35,-2773.18z"/>
  <path class="fil1" d="M1693.19 13092.98c460.02,355.38 934.4,703.58 1488.28,1012.02 1250.35,696.26 2809.29,1093.62 4206.42,1338.83 470.96,82.65 945.82,152.34 1422.6,215.61 184.28,-368.46 405.53,-724.96 712.09,-1053.84 658.07,-706.02 1024.28,-843.52 1940.03,-914.98 690.23,-53.86 1380.47,-37.34 2070.7,63.82 595.31,136.7 1190.63,273.4 1785.94,410.1 -847.21,-324.91 -1578.74,-687.32 -2553.67,-970.77 -684.59,-199.04 -1172.36,-309.03 -1890.63,-201.98 -455.55,67.88 -876.55,223.95 -1211.17,507.99 356.52,-55.85 726.64,-110.07 1055.25,-132.29 258.29,-17.45 264.58,-21.89 11.73,37.54 -410.94,96.61 -810.43,216.18 -1162.26,431.01 -463.61,283.07 -526.68,478.55 -775.6,928.02 -180.51,325.9 -93.77,336.87 -444.72,299.92 -2422.86,-255.23 -4698.44,-799.77 -6654.99,-1971z"/>
  <g id="_2347636917792">
   <polygon class="fil2" points="2057.05,15685.96 4279.56,15699.19 3128.62,17895.24 2123.2,17895.24 3313.82,15871.17 "/>
   <path class="fil2" d="M4610.28 15738.88c560.04,-17.64 1120.07,-35.28 1680.11,-52.92 141.11,114.65 282.23,229.31 423.34,343.96 -299.86,533.58 -599.73,1067.15 -899.59,1600.73 -141.11,79.38 -282.22,158.75 -423.33,238.13 -643.82,0 -1287.64,0 -1931.46,0 383.64,-709.97 767.29,-1419.93 1150.93,-2129.9z"/>
   <polygon class="fil2" points="7004.77,15712.42 9187.58,15699.19 8923,16188.67 7692.69,16201.9 7547.16,16492.94 8354.14,16545.86 8102.79,17048.57 7269.35,17061.8 7123.83,17405.76 8221.85,17392.53 8049.87,17868.78 5853.83,17882.01 "/>
   <polygon class="fil2" points="9531.54,15712.42 11727.59,15699.19 10298.84,18212.74 9412.48,18133.36 9954.88,17207.32 9690.29,17180.86 9319.88,17868.78 8314.46,17855.55 "/>
   <polygon class="fil2" points="12018.63,15712.42 13050.51,15699.19 12137.69,17392.53 13315.09,17418.99 13116.65,17736.49 15762.49,17829.09 16318.11,17895.24 10880.92,17882.01 "/>
  </g>
  <polygon class="fil3" points="5311.41,16221.74 5576,16241.59 4954.23,17418.99 4709.49,17418.99 "/>
  <polygon class="fil3" points="10036.61,16606.18 10212.83,16631.85 10437.72,16254.82 10133.45,16228.36 "/>
  <path class="fil4" d="M8377.95 18112.04l383.65 26.46 13.23 205.05 191.82 -211.67 429.16 -0.73 -5.24 11.24 0.06 -0.01c-2.82,6.44 -4.87,12.06 -6.25,16.95l-473.99 711.83 -383.65 -1.66 181.9 -312.54 -185.21 178.6 -110.79 -4.96 38.03 -188.52 -115.75 241.43 -418.38 -11.57 461.41 -659.9zm1075 19l607.81 -1.04 -290.47 514.61 -673.04 -14.88 343.96 -479.56 -1.77 0.11c5.8,-7.59 10.66,-14.67 13.51,-19.24zm723.86 -1.24l1261.24 -2.16 -34.14 56.89 1.34 0.37 -273.99 448.08 -691.24 -1.61 261.28 -327.43 -185.21 -3.3 -229.74 326.38 -325.89 -7.22 239.78 -299.31 -135.6 -13.23 74.07 -117.07 1.33 0.37 36.77 -60.76zm1350.75 -2.32l562.83 -0.97 3.06 35.66 1.03 -0.49 -4.1 94.26 -196.78 150.49 36.38 41.34 -137.26 254.66 -286.08 1.65 64.49 -241.43 -19.84 -1.65 -89.3 173.63 -307.58 1.65 322.92 -444.93 2.46 0.82 47.77 -64.69zm705.82 -1.21l582.98 -1 -26.46 191.82 -429.95 -33.07 -46.3 72.76 357.19 -13.23 -205.06 337.35 -555.62 6.61 -19.85 -178.59 396.88 6.61 -1.23 -35.14 -309.68 -12.78 204.72 -273.88 1.31 0.47 51.07 -67.93z"/>
  <polygon class="fil3" points="9447.68,18499.11 9546.89,18505.73 9715.57,18303.98 9636.19,18284.14 "/>
  <polygon class="fil3" points="10815.98,18502.42 10915.19,18509.04 11083.87,18307.29 11004.49,18287.45 "/>
  <polygon class="fil3" points="11676.72,18361.04 11747,18364.35 11753.62,18284.97 11678.38,18284.97 "/>
  <polygon class="fil3" points="10682.88,18095.65 10831.71,18097.3 10758.95,18256.05 "/>
 </g>
</svg>
