<svg width="75" height="75" viewBox="0 0 75 75" fill="none" xmlns="http://www.w3.org/2000/svg">
<g clip-path="url(#clip0_28_163)">
<path d="M37.5 0C29.2148 0.00909874 21.2715 3.30442 15.413 9.16296C9.55442 15.0215 6.2591 22.9648 6.25 31.25C6.25 47.7563 32.5 70.4156 35.4813 72.9469L37.5 74.6531L39.5188 72.9469C42.5 70.4156 68.75 47.7563 68.75 31.25C68.7409 22.9648 65.4456 15.0215 59.587 9.16296C53.7285 3.30442 45.7852 0.00909874 37.5 0ZM37.5 46.875C34.4097 46.875 31.3887 45.9586 28.8192 44.2417C26.2497 42.5248 24.247 40.0845 23.0644 37.2294C21.8818 34.3743 21.5723 31.2327 22.1752 28.2017C22.7781 25.1708 24.2663 22.3867 26.4515 20.2015C28.6367 18.0163 31.4208 16.5281 34.4517 15.9252C37.4827 15.3223 40.6243 15.6318 43.4794 16.8144C46.3345 17.997 48.7748 19.9997 50.4917 22.5692C52.2086 25.1387 53.125 28.1597 53.125 31.25C53.12 35.3925 51.4723 39.3639 48.5431 42.2931C45.6139 45.2222 41.6425 46.87 37.5 46.875Z" fill="#ED3237"/>
<path d="M37.5 40.625C42.6777 40.625 46.875 36.4277 46.875 31.25C46.875 26.0723 42.6777 21.875 37.5 21.875C32.3223 21.875 28.125 26.0723 28.125 31.25C28.125 36.4277 32.3223 40.625 37.5 40.625Z" fill="#ED3237"/>
</g>
<defs>
<clipPath id="clip0_28_163">
<rect width="75" height="75" fill="white"/>
</clipPath>
</defs>
</svg>
